<svg xmlns="http://www.w3.org/2000/svg" viewBox="0 0 900 710" width="900" height="710" font-family="ui-monospace,'Cascadia Code','Source Code Pro',monospace">
  <defs>
    <style>
      .label-dw  { fill:#58a6ff; }
      .label-pl  { fill:#3fb950; }
      .label-dim { fill:#3a3d58; }
      .label-fg  { fill:#8890b8; }
      .label-bright { fill:#d8dcf0; }
      .mono { font-family: ui-monospace,'Cascadia Code',monospace; }
      .sans { font-family: system-ui,-apple-system,sans-serif; }
    </style>
    <!-- Badge markers -->
    <filter id="shadow" x="-20%" y="-20%" width="140%" height="140%">
      <feDropShadow dx="0" dy="1" stdDeviation="2" flood-color="#000" flood-opacity="0.6"/>
    </filter>
  </defs>

  <!-- ── Background ── -->
  <rect width="900" height="710" fill="#06070f"/>

  <!-- ── Title ── -->
  <text x="450" y="22" text-anchor="middle" font-size="11" letter-spacing="0.1em" text-transform="uppercase" class="sans label-dim">DOCWRIGHT · UI COMPONENT ANATOMY</text>

  <!-- ══════════════════════════════════════
       MOCKUP SHELL
  ══════════════════════════════════════ -->
  <!-- Outer chrome -->
  <rect x="22" y="32" width="856" height="430" rx="6" fill="#0f0f14" stroke="#1a1c2e" stroke-width="1"/>

  <!-- ① TOOLBAR -->
  <rect x="22" y="32" width="856" height="38" rx="6" fill="#0a0a0e"/>
  <rect x="22" y="56" width="856" height="14" fill="#0a0a0e"/><!-- bottom square corners -->
  <rect x="22" y="57" width="856" height="1" fill="#1a1c2e"/>
  <!-- toolbar content -->
  <rect x="34" y="44" width="18" height="12" rx="2" fill="#1a1c2e"/>
  <text x="43" y="53" text-anchor="middle" font-size="9" class="sans" fill="#334">☰</text>
  <text x="450" y="55" text-anchor="middle" font-size="10" font-weight="700" class="sans" fill="#58a6ff">DocWright</text>
  <rect x="790" y="42" width="36" height="16" rx="2" fill="#1a1c2e"/>
  <text x="808" y="53" text-anchor="middle" font-size="8" class="sans" fill="#556">+ New</text>
  <rect x="832" y="42" width="28" height="16" rx="2" fill="#1a1c2e"/>
  <text x="846" y="53" text-anchor="middle" font-size="8" class="sans" fill="#556">⚙ AI</text>
  <rect x="864" y="42" width="10" height="16" rx="2" fill="#1a1c2e"/>
  <text x="869" y="53" text-anchor="middle" font-size="9" class="sans" fill="#556">⊞</text>

  <!-- ② ACTIVITY BAR -->
  <rect x="22" y="70" width="40" height="392" fill="#08080f"/>
  <rect x="62" y="70" width="1" height="392" fill="#1a1c2e"/>
  <!-- icons -->
  <rect x="31" y="80" width="22" height="22" rx="4" fill="#1a1a2a"/>
  <rect x="29" y="80" width="2" height="22" rx="1" fill="#58a6ff"/><!-- active indicator -->
  <text x="42" y="95" text-anchor="middle" font-size="12" fill="#ccd">📄</text>
  <rect x="31" y="108" width="22" height="22" rx="4" fill="none"/>
  <text x="42" y="123" text-anchor="middle" font-size="11" fill="#334">🔍</text>
  <rect x="31" y="136" width="22" height="22" rx="4" fill="none"/>
  <text x="42" y="151" text-anchor="middle" font-size="11" fill="#334">📋</text>
  <rect x="31" y="164" width="22" height="22" rx="4" fill="none"/>
  <text x="42" y="179" text-anchor="middle" font-size="11" fill="#334">🏷</text>
  <rect x="31" y="192" width="22" height="22" rx="4" fill="none"/>
  <text x="42" y="207" text-anchor="middle" font-size="11" fill="#334">⚙</text>
  <rect x="31" y="220" width="22" height="22" rx="4" fill="none"/>
  <text x="42" y="235" text-anchor="middle" font-size="11" fill="#334">⎇</text>
  <!-- divider -->
  <rect x="32" y="254" width="20" height="1" fill="#1a1c2e"/>
  <!-- plugin icon -->
  <rect x="31" y="262" width="22" height="22" rx="4" fill="none"/>
  <text x="42" y="277" text-anchor="middle" font-size="11" fill="#58a6ff" opacity="0.7">🐳</text>

  <!-- ④ LEFT PANEL -->
  <rect x="63" y="70" width="190" height="392" fill="#0b0b10"/>
  <!-- ⑤ Sidebar header -->
  <rect x="63" y="70" width="190" height="28" fill="#0d0d14"/>
  <rect x="63" y="98" width="190" height="1" fill="#1a1c2e"/>
  <text x="75" y="88" font-size="9" font-weight="700" letter-spacing="0.06em" class="mono" fill="#445">FILES</text>
  <rect x="238" y="77" width="12" height="12" rx="2" fill="#1a1c2e"/>
  <text x="244" y="87" text-anchor="middle" font-size="9" class="sans" fill="#556">+</text>
  <!-- ⑥ File tree content -->
  <text x="74" y="116" font-size="9" class="mono" fill="#445">📁 plans</text>
  <rect x="72" y="121" width="172" height="16" rx="2" fill="rgba(88,166,255,0.08)"/>
  <text x="74" y="133" font-size="9" class="mono" fill="#aab">📄 plugin-system.md</text>
  <text x="74" y="149" font-size="9" class="mono" fill="#445">📁 proposals</text>
  <text x="74" y="163" font-size="9" class="mono" fill="#445">📄 SESSION-LOG.md</text>
  <text x="74" y="177" font-size="9" class="mono" fill="#445">📁 docs</text>
  <text x="74" y="191" font-size="9" class="mono" fill="#445">📁 inventory</text>
  <text x="74" y="205" font-size="9" class="mono" fill="#445">📁 ansible</text>
  <!-- projects section -->
  <rect x="63" y="390" width="190" height="1" fill="#1a1c2e"/>
  <text x="75" y="402" font-size="8" font-weight="700" letter-spacing="0.05em" class="mono" fill="#334">PROJECTS</text>
  <text x="75" y="415" font-size="9" class="mono" fill="#445">bms-ai-cluster</text>
  <text x="75" y="428" font-size="9" class="mono" fill="#445">cs-erp-images</text>
  <rect x="253" y="70" width="1" height="392" fill="#1a1c2e"/>

  <!-- ⑦ MAIN CONTENT -->
  <rect x="254" y="70" width="386" height="392" fill="#111118"/>
  <!-- breadcrumb -->
  <rect x="254" y="70" width="386" height="24" fill="#0d0d14"/>
  <rect x="254" y="94" width="386" height="1" fill="#1a1c2e"/>
  <text x="264" y="85" font-size="9" class="mono" fill="#334">plans</text>
  <text x="293" y="85" font-size="9" class="mono" fill="#1e2030">/</text>
  <text x="302" y="85" font-size="9" class="mono" fill="#667">plugin-system.md</text>
  <!-- doc content -->
  <text x="270" y="116" font-size="12" font-weight="700" class="sans" fill="#ccd">Plugin System — Extensible Module Architecture</text>
  <rect x="270" y="125" width="320" height="7" rx="3" fill="#1a1c2e"/>
  <rect x="270" y="137" width="280" height="7" rx="3" fill="#1a1c2e"/>
  <rect x="270" y="149" width="340" height="7" rx="3" fill="#1a1c2e"/>
  <rect x="270" y="161" width="200" height="7" rx="3" fill="#1a1c2e"/>
  <rect x="270" y="181" width="160" height="7" rx="3" fill="#16202a"/>
  <rect x="270" y="193" width="300" height="7" rx="3" fill="#1a1c2e"/>
  <rect x="270" y="205" width="260" height="7" rx="3" fill="#1a1c2e"/>
  <rect x="270" y="217" width="310" height="7" rx="3" fill="#1a1c2e"/>
  <rect x="270" y="229" width="180" height="7" rx="3" fill="#1a1c2e"/>
  <rect x="640" y="70" width="1" height="392" fill="#1a1c2e"/>

  <!-- ⑧ RIGHT PANEL -->
  <rect x="641" y="70" width="237" height="392" fill="#0b0b10"/>
  <!-- ⑨ Tab bar -->
  <rect x="641" y="70" width="237" height="28" fill="#0d0d14"/>
  <rect x="641" y="98" width="237" height="1" fill="#1a1c2e"/>
  <text x="666" y="88" text-anchor="middle" font-size="8" font-weight="700" letter-spacing="0.04em" class="mono" fill="#ccd">PROP</text>
  <rect x="641" y="96" width="50" height="2" rx="1" fill="#58a6ff"/>
  <text x="724" y="88" text-anchor="middle" font-size="8" font-weight="700" letter-spacing="0.04em" class="mono" fill="#445">RELATED</text>
  <text x="783" y="88" text-anchor="middle" font-size="8" font-weight="700" letter-spacing="0.04em" class="mono" fill="#445">REVIEW</text>
  <!-- ⑩ Properties content -->
  <rect x="653" y="108" width="213" height="1" fill="#12141e"/>
  <text x="655" y="120" font-size="8" class="mono" fill="#445">status</text>
  <text x="748" y="120" font-size="8" class="mono" fill="#667" text-anchor="end">in-progress</text>
  <rect x="653" y="124" width="213" height="1" fill="#12141e"/>
  <text x="655" y="136" font-size="8" class="mono" fill="#445">author</text>
  <text x="748" y="136" font-size="8" class="mono" fill="#667" text-anchor="end">NetYeti</text>
  <rect x="653" y="140" width="213" height="1" fill="#12141e"/>
  <text x="655" y="152" font-size="8" class="mono" fill="#445">phase</text>
  <text x="748" y="152" font-size="8" class="mono" fill="#667" text-anchor="end">4</text>
  <rect x="653" y="156" width="213" height="1" fill="#12141e"/>
  <text x="655" y="168" font-size="8" class="mono" fill="#445">priority</text>
  <text x="748" y="168" font-size="8" class="mono" fill="#667" text-anchor="end">high</text>
  <rect x="653" y="172" width="213" height="1" fill="#12141e"/>
  <text x="655" y="184" font-size="8" class="mono" fill="#445">ticket</text>
  <text x="748" y="184" font-size="8" class="mono" fill="#667" text-anchor="end">CS-0029</text>

  <!-- ⑪ FOOTER -->
  <rect x="22" y="462" width="856" height="30" fill="#0a0a0e"/>
  <rect x="22" y="461" width="856" height="1" fill="#1a1c2e"/>
  <rect x="22" y="468" width="856" height="14" fill="#0a0a0e"/><!-- square top corners -->
  <text x="34" y="481" font-size="8" class="sans" fill="#223">DocWright · MIT License</text>
  <rect x="830" y="469" width="40" height="14" rx="2" fill="#1a1c2e"/>
  <text x="850" y="479" text-anchor="middle" font-size="8" class="sans" fill="#445">🌙 dark</text>

  <!-- Chat toggle -->
  <rect x="400" y="444" width="100" height="18" rx="9" fill="#1a2f4a"/>
  <rect x="400" y="443" width="100" height="19" rx="9" stroke="#2b5b84" stroke-width="1" fill="none"/>
  <text x="450" y="456" text-anchor="middle" font-size="8" class="sans" fill="#58a6ff">⚡ Chat</text>

  <!-- ══════════════════════════════════════
       REGION OUTLINES + BADGES
  ══════════════════════════════════════ -->

  <!-- DocWright-owned: blue dashed outline -->
  <!-- Toolbar -->
  <rect x="23" y="33" width="854" height="36" rx="5" fill="none" stroke="#58a6ff" stroke-width="1.5" stroke-dasharray="4 3" opacity="0.5"/>
  <!-- Activity Bar -->
  <rect x="23" y="69" width="38" height="394" fill="none" stroke="#58a6ff" stroke-width="1.5" stroke-dasharray="4 3" opacity="0.5"/>
  <!-- Footer -->
  <rect x="23" y="462" width="854" height="28" rx="0" fill="none" stroke="#58a6ff" stroke-width="1.5" stroke-dasharray="4 3" opacity="0.5"/>

  <!-- Plugin-owned: green dashed outline -->
  <!-- Left Panel -->
  <rect x="64" y="69" width="188" height="394" fill="none" stroke="#3fb950" stroke-width="1.5" stroke-dasharray="4 3" opacity="0.6"/>
  <!-- Main Content -->
  <rect x="255" y="69" width="384" height="394" fill="none" stroke="#3fb950" stroke-width="1.5" stroke-dasharray="4 3" opacity="0.6"/>
  <!-- Right Panel -->
  <rect x="642" y="69" width="235" height="394" fill="none" stroke="#3fb950" stroke-width="1.5" stroke-dasharray="4 3" opacity="0.6"/>

  <!-- ── BADGES ── -->
  <!-- Badge function: circle + number -->
  <!-- ① Toolbar -->
  <circle cx="860" cy="51" r="8" fill="#58a6ff" filter="url(#shadow)"/>
  <text x="860" y="55" text-anchor="middle" font-size="8" font-weight="800" fill="#000" class="mono">1</text>

  <!-- ② Activity Bar -->
  <circle cx="42" cy="300" r="8" fill="#58a6ff" filter="url(#shadow)"/>
  <text x="42" y="304" text-anchor="middle" font-size="8" font-weight="800" fill="#000" class="mono">2</text>

  <!-- ③ View Container Icon (one icon) -->
  <circle cx="62" cy="91" r="7" fill="#58a6ff" filter="url(#shadow)"/>
  <text x="62" y="95" text-anchor="middle" font-size="7" font-weight="800" fill="#000" class="mono">3</text>

  <!-- ④ Left Panel -->
  <circle cx="251" cy="80" r="8" fill="#3fb950" filter="url(#shadow)"/>
  <text x="251" y="84" text-anchor="middle" font-size="8" font-weight="800" fill="#000" class="mono">4</text>

  <!-- ⑤ Sidebar Header -->
  <circle cx="64" cy="84" r="7" fill="#3fb950" filter="url(#shadow)"/>
  <text x="64" y="88" text-anchor="middle" font-size="7" font-weight="800" fill="#000" class="mono">5</text>

  <!-- ⑥ Left Panel Content -->
  <circle cx="64" cy="200" r="7" fill="#3fb950" filter="url(#shadow)"/>
  <text x="64" y="204" text-anchor="middle" font-size="7" font-weight="800" fill="#000" class="mono">6</text>

  <!-- ⑦ Main Content -->
  <circle cx="447" cy="254" r="8" fill="#3fb950" filter="url(#shadow)"/>
  <text x="447" y="258" text-anchor="middle" font-size="8" font-weight="800" fill="#000" class="mono">7</text>

  <!-- ⑧ Right Panel -->
  <circle cx="875" cy="80" r="8" fill="#3fb950" filter="url(#shadow)"/>
  <text x="875" y="84" text-anchor="middle" font-size="8" font-weight="800" fill="#000" class="mono">8</text>

  <!-- ⑨ Right Panel Header -->
  <circle cx="642" cy="84" r="7" fill="#3fb950" filter="url(#shadow)"/>
  <text x="642" y="88" text-anchor="middle" font-size="7" font-weight="800" fill="#000" class="mono">9</text>

  <!-- ⑩ Right Panel Content -->
  <circle cx="642" cy="200" r="7" fill="#3fb950" filter="url(#shadow)"/>
  <text x="642" y="204" text-anchor="middle" font-size="7" font-weight="800" fill="#000" class="mono">10</text>

  <!-- ⑪ Footer -->
  <circle cx="860" cy="477" r="8" fill="#58a6ff" filter="url(#shadow)"/>
  <text x="860" y="481" text-anchor="middle" font-size="8" font-weight="800" fill="#000" class="mono">11</text>

  <!-- Chat badge -->
  <circle cx="500" cy="453" r="7" fill="#3a3d58" filter="url(#shadow)"/>
  <text x="500" y="457" text-anchor="middle" font-size="7" font-weight="800" fill="#d8dcf0" class="mono">⚡</text>

  <!-- ══════════════════════════════════════
       OWNERSHIP KEY
  ══════════════════════════════════════ -->
  <line x1="22" y1="504" x2="878" y2="504" stroke="#1a1c2e" stroke-width="1"/>
  <text x="450" y="516" text-anchor="middle" font-size="9" letter-spacing="0.08em" class="mono" fill="#3a3d58">COMPONENT REFERENCE</text>

  <!-- Key row -->
  <rect x="22" y="522" width="10" height="10" rx="2" fill="none" stroke="#58a6ff" stroke-width="1.5" stroke-dasharray="3 2"/>
  <text x="37" y="531" font-size="9" class="sans" fill="#58a6ff">DocWright chrome — always controlled by the shell</text>
  <rect x="500" y="522" width="10" height="10" rx="2" fill="none" stroke="#3fb950" stroke-width="1.5" stroke-dasharray="3 2"/>
  <text x="515" y="531" font-size="9" class="sans" fill="#3fb950">Plugin-owned — View Container takes full control when active</text>

  <!-- ── Legend two-column grid ── -->
  <!-- Col 1 -->
  <g transform="translate(22, 542)">
    <!-- Row 1 -->
    <circle cx="8" cy="9" r="7" fill="#58a6ff"/>
    <text x="8" y="13" text-anchor="middle" font-size="7" font-weight="800" fill="#000" class="mono">1</text>
    <text x="20" y="10" font-size="10" font-weight="600" class="sans" fill="#d8dcf0">Toolbar</text>
    <text x="20" y="22" font-size="8" class="mono" fill="#3a3d58">.app-toolbar</text>
    <text x="20" y="33" font-size="8" class="sans" fill="#8890b8">Brand, +New, AI picker, right-panel toggle. Always visible.</text>

    <!-- Row 2 -->
    <circle cx="8" cy="54" r="7" fill="#58a6ff"/>
    <text x="8" y="58" text-anchor="middle" font-size="7" font-weight="800" fill="#000" class="mono">2</text>
    <text x="20" y="55" font-size="10" font-weight="600" class="sans" fill="#d8dcf0">Activity Bar</text>
    <text x="20" y="67" font-size="8" class="mono" fill="#3a3d58">.activity-bar</text>
    <text x="20" y="78" font-size="8" class="sans" fill="#8890b8">The sole source of truth for active view. After refactor: all</text>
    <text x="20" y="88" font-size="8" class="sans" fill="#8890b8">icons come from the __dw_plugins registry.</text>

    <!-- Row 3 -->
    <circle cx="8" cy="107" r="7" fill="#58a6ff"/>
    <text x="8" y="111" text-anchor="middle" font-size="7" font-weight="800" fill="#000" class="mono">3</text>
    <text x="20" y="108" font-size="10" font-weight="600" class="sans" fill="#d8dcf0">View Container Icon</text>
    <text x="20" y="120" font-size="8" class="mono" fill="#3a3d58">.act-btn</text>
    <text x="20" y="131" font-size="8" class="sans" fill="#8890b8">One per registered view. Active state: left accent border.</text>
    <text x="20" y="141" font-size="8" class="sans" fill="#8890b8">Position set by "order" in plugin.json manifest.</text>

    <!-- Row 4 -->
    <circle cx="8" cy="160" r="7" fill="#3fb950"/>
    <text x="8" y="164" text-anchor="middle" font-size="7" font-weight="800" fill="#000" class="mono">4</text>
    <text x="20" y="161" font-size="10" font-weight="600" class="sans" fill="#d8dcf0">Left Panel</text>
    <text x="20" y="173" font-size="8" class="mono" fill="#3a3d58">.panel-left  /  #{name}-sidebar-root</text>
    <text x="20" y="184" font-size="8" class="sans" fill="#8890b8">When plugin active: full-height, no DocWright chrome.</text>
    <text x="20" y="194" font-size="8" class="sans" fill="#8890b8">Plugin calls mountSidebar() registered in __dw_plugins.</text>

    <!-- Row 5 -->
    <circle cx="8" cy="213" r="7" fill="#3fb950"/>
    <text x="8" y="217" text-anchor="middle" font-size="7" font-weight="800" fill="#000" class="mono">5</text>
    <text x="20" y="214" font-size="10" font-weight="600" class="sans" fill="#d8dcf0">Sidebar Header</text>
    <text x="20" y="226" font-size="8" class="mono" fill="#3a3d58">.sidebar-header</text>
    <text x="20" y="237" font-size="8" class="sans" fill="#8890b8">Label + optional actions (e.g. +). Present in native views.</text>
    <text x="20" y="247" font-size="8" class="sans" fill="#8890b8">Absent when plugin owns the panel — plugin provides its own.</text>

    <!-- Row 6 -->
    <circle cx="8" cy="266" r="7" fill="#3fb950"/>
    <text x="8" y="270" text-anchor="middle" font-size="7" font-weight="800" fill="#000" class="mono">6</text>
    <text x="20" y="267" font-size="10" font-weight="600" class="sans" fill="#d8dcf0">Left Panel Content</text>
    <text x="20" y="279" font-size="8" class="mono" fill="#3a3d58">mounted by View Container</text>
    <text x="20" y="290" font-size="8" class="sans" fill="#8890b8">File tree, git panel, plugin tree. Populated by mountSidebar().</text>
  </g>

  <!-- Col 2 -->
  <g transform="translate(462, 542)">
    <!-- Row 7 -->
    <circle cx="8" cy="9" r="7" fill="#3fb950"/>
    <text x="8" y="13" text-anchor="middle" font-size="7" font-weight="800" fill="#000" class="mono">7</text>
    <text x="20" y="10" font-size="10" font-weight="600" class="sans" fill="#d8dcf0">Main Content Area</text>
    <text x="20" y="22" font-size="8" class="mono" fill="#3a3d58">#content  /  SvelteKit routes</text>
    <text x="20" y="33" font-size="8" class="sans" fill="#8890b8">URL-driven. Plugins contribute /plugin/[name] routes.</text>
    <text x="20" y="43" font-size="8" class="sans" fill="#8890b8">Sub-state as query params (?uc=helpdesk&amp;tag=v16.1.0).</text>

    <!-- Row 8 -->
    <circle cx="8" cy="62" r="7" fill="#3fb950"/>
    <text x="8" y="66" text-anchor="middle" font-size="7" font-weight="800" fill="#000" class="mono">8</text>
    <text x="20" y="63" font-size="10" font-weight="600" class="sans" fill="#d8dcf0">Right Panel</text>
    <text x="20" y="75" font-size="8" class="mono" fill="#3a3d58">.panel-right  /  #{name}-right-panel-root</text>
    <text x="20" y="86" font-size="8" class="sans" fill="#8890b8">When plugin active: fully plugin-owned — no native tabs.</text>
    <text x="20" y="96" font-size="8" class="sans" fill="#8890b8">Plugin populates via bridge.setRightPanel(html, label).</text>

    <!-- Row 9 -->
    <circle cx="8" cy="115" r="7" fill="#3fb950"/>
    <text x="8" y="119" text-anchor="middle" font-size="7" font-weight="800" fill="#000" class="mono">9</text>
    <text x="20" y="116" font-size="10" font-weight="600" class="sans" fill="#d8dcf0">Right Panel Header / Tab Bar</text>
    <text x="20" y="128" font-size="8" class="mono" fill="#3a3d58">.right-tab-bar  /  .plugin-right-header</text>
    <text x="20" y="139" font-size="8" class="sans" fill="#8890b8">Native: Properties / Related / Review / Improve tabs.</text>
    <text x="20" y="149" font-size="8" class="sans" fill="#8890b8">Plugin: plain header label replaces the tab bar entirely.</text>

    <!-- Row 10 -->
    <circle cx="8" cy="168" r="7" fill="#3fb950"/>
    <text x="8" y="172" text-anchor="middle" font-size="7" font-weight="800" fill="#000" class="mono">10</text>
    <text x="20" y="169" font-size="10" font-weight="600" class="sans" fill="#d8dcf0">Right Panel Content</text>
    <text x="20" y="181" font-size="8" class="mono" fill="#3a3d58">PropertiesPane  /  plugin HTML</text>
    <text x="20" y="192" font-size="8" class="sans" fill="#8890b8">Native: frontmatter fields, related docs, AI output.</text>
    <text x="20" y="202" font-size="8" class="sans" fill="#8890b8">Plugin: HTML injected by bridge.setRightPanel().</text>

    <!-- Row 11 -->
    <circle cx="8" cy="221" r="7" fill="#58a6ff"/>
    <text x="8" y="225" text-anchor="middle" font-size="7" font-weight="800" fill="#000" class="mono">11</text>
    <text x="20" y="222" font-size="10" font-weight="600" class="sans" fill="#d8dcf0">Footer</text>
    <text x="20" y="234" font-size="8" class="mono" fill="#3a3d58">.app-footer</text>
    <text x="20" y="245" font-size="8" class="sans" fill="#8890b8">Attribution + theme picker. After refactor: Settings link</text>
    <text x="20" y="255" font-size="8" class="sans" fill="#8890b8">added here (removes Settings from Activity Bar).</text>

    <!-- Row Chat -->
    <circle cx="8" cy="274" r="7" fill="#3a3d58"/>
    <text x="8" y="278" text-anchor="middle" font-size="9" font-weight="800" fill="#d8dcf0" class="mono">⚡</text>
    <text x="20" y="275" font-size="10" font-weight="600" class="sans" fill="#d8dcf0">Chat Toggle</text>
    <text x="20" y="287" font-size="8" class="mono" fill="#3a3d58">.chat-toggle</text>
    <text x="20" y="298" font-size="8" class="sans" fill="#8890b8">Fixed above footer. Opens AI chat panel at bottom of Main.</text>
    <text x="20" y="308" font-size="8" class="sans" fill="#8890b8">Always visible. DocWright chrome — plugins don't control it.</text>
  </g>
</svg>